<svg width="25" height="25" viewBox="0 0 25 25" fill="none" xmlns="http://www.w3.org/2000/svg">
<path d="M2.08334 6.25L9.28441 10.3302C11.9392 11.8344 13.0608 11.8344 15.7156 10.3302L22.9167 6.25" stroke="#808080" stroke-opacity="0.55" stroke-width="1.5" stroke-linejoin="round"/>
<path d="M2.09977 14.0371C2.16786 17.2305 2.20192 18.827 3.38018 20.0098C4.55843 21.1925 6.19827 21.2337 9.47796 21.3161C11.4993 21.3669 13.5007 21.3669 15.5221 21.3161C18.8018 21.2337 20.4416 21.1925 21.6199 20.0098C22.7981 18.827 22.8322 17.2305 22.9002 14.0371C22.9222 13.0104 22.9222 11.9897 22.9002 10.963C22.8322 7.76969 22.7981 6.17305 21.6199 4.99031C20.4416 3.80757 18.8018 3.76638 15.5221 3.68397C13.5007 3.63318 11.4993 3.63318 9.47795 3.68396C6.19827 3.76635 4.55843 3.80755 3.38017 4.9903C2.20191 6.17304 2.16786 7.76968 2.09976 10.963C2.07786 11.9897 2.07787 13.0104 2.09977 14.0371Z" stroke="#808080" stroke-opacity="0.55" stroke-width="1.5" stroke-linejoin="round"/>
</svg>
